<svg width="35" height="50" viewBox="0 0 35 50" fill="none" xmlns="http://www.w3.org/2000/svg">
<path fill-rule="evenodd" clip-rule="evenodd" d="M17.2273 50C26.7417 50 34.4546 42.6844 34.4546 33.6601C34.4546 25.7725 29.7166 18.6909 21.161 5.90308C19.9281 4.06037 18.616 2.09917 17.2273 0C15.8386 2.09917 14.5265 4.06037 13.2936 5.90308C4.73797 18.6908 0 25.7725 0 33.6601C0 42.6844 7.71293 50 17.2273 50ZM24.4232 41.9675C25.7112 42.6728 28.0665 41.0905 29.684 38.4333C31.3014 35.7761 31.5685 33.0503 30.2805 32.345C27.9054 31.0443 26.8345 32.8405 25.4402 35.179C25.3037 35.408 25.164 35.6422 25.0198 35.8792C24.7895 36.2575 24.5545 36.6196 24.329 36.967C22.9707 39.0596 21.959 40.6181 24.4232 41.9675Z" fill="#F4F4F4"/>
</svg>
