<svg width="2667" height="481" viewBox="0 0 2667 481" fill="none" xmlns="http://www.w3.org/2000/svg">
<path d="M2.1334 2.13335C0.266729 4.00001 6.20671e-05 23.3333 6.20671e-05 194.533C6.20671e-05 407.067 -0.799938 389.2 9.60006 410C17.2001 425.067 29.7334 442.8 38.2667 450.667C51.6001 462.933 69.3334 471.733 90.8001 476.8C99.8667 478.933 112.8 479.2 250.4 479.6L400 480.133V1.32173e-05H337.733C300.667 1.32173e-05 274.533 0.533347 273.333 1.33335C271.6 2.40001 271.2 27.6 270.667 210.267L270 418H234C200.667 417.867 197.333 417.733 188.4 414.933C170.8 409.467 159.467 395.333 156.133 374.667C155.2 368.933 154.667 305.2 154.667 185.067V4.13335L151.733 2.13335C149.067 0.26668 139.733 1.32173e-05 76.4001 1.32173e-05C12.5334 1.32173e-05 4.00006 0.26668 2.1334 2.13335Z" fill="white"/>
<path d="M450.667 480H604V257.333L681.067 257.067L758 256.667L758.4 224.267L758.667 192H604V65.3333H810.667V0H450.667V480Z" fill="white"/>
<path d="M861.333 480H1221.33V418.667L1118.53 418.4C1018.53 418 1015.73 417.867 1013.87 415.467C1011.2 411.867 1011.07 263.067 1013.73 259.6C1015.2 257.467 1021.87 257.333 1092 257.067L1168.67 256.667L1169.07 224.267L1169.33 192H1012V65.3333H1221.33V0H861.333V480Z" fill="white"/>
<path d="M1274.13 2C1272.13 4 1272 24.2667 1272 242.133V480H1344.67C1415.6 480 1417.33 480 1420 477.333C1422.67 474.667 1422.67 472.933 1422.67 366V257.333H1456.4C1474.8 257.333 1494.27 258 1499.33 258.667C1519.87 261.6 1531.47 267.333 1536 276.8C1538.53 282 1538.67 285.333 1538.67 381.067V480H1670.67L1670.4 377.6L1670 275.333L1664.8 265.733C1655.07 247.333 1632.53 230.133 1614 227.067L1607.33 225.867L1620.27 224.267C1643.33 221.333 1654.53 215.067 1662.27 200.4C1670 186.133 1670.93 176.933 1670.4 122.533L1670 74L1666.27 63.6C1654.27 29.3333 1628.8 12.1333 1577.2 3.06667C1566.27 1.2 1546.67 0.933333 1420.53 0.4C1288.8 -0.133333 1276.13 0 1274.13 2ZM1522.93 69.0667C1528.93 71.0667 1533.87 73.8667 1538.27 77.8667L1544.67 83.7333L1545.07 128.933C1545.47 173.333 1545.33 174.267 1542.53 177.733C1539.07 182.4 1531.73 186 1521.07 188.8C1514.4 190.533 1503.6 191.2 1467.73 191.6L1422.67 192.267V65.2L1468.4 65.6C1511.33 66 1514.53 66.2667 1522.93 69.0667Z" fill="white"/>
<path d="M1828.67 1.60001C1781.87 4.93334 1747.07 22.6667 1732.13 50.5333C1724 65.8667 1722.67 74.4 1722.67 110.667C1722.67 147.467 1723.73 155.333 1731.07 171.067C1740.8 192 1752.53 206 1773.07 220.8C1780.93 226.533 1819.73 255.6 1859.33 285.333C1898.93 315.2 1934.93 342 1939.33 344.933C1954.53 355.2 1957.33 360.533 1957.33 378.667C1957.33 393.067 1954.93 398.933 1947.07 404.267C1936.93 411.2 1929.47 412.667 1904 412.667C1878.4 412.667 1872.8 411.6 1860.8 404C1851.47 398 1849.33 393.6 1849.33 379.6V368L1787.07 368.267L1724.67 368.667L1724.8 386C1725.07 439.867 1752.13 467.067 1814.93 476.933C1828.13 478.933 1839.87 479.333 1906.67 479.333C1990.27 479.333 1993.33 479.067 2018 471.2C2043.73 462.933 2062.53 448.133 2072 428.8C2080.53 411.333 2081.33 406.4 2081.33 370C2081.33 332.933 2080.13 325.067 2072 308.133C2065.2 294 2057.2 282.8 2047.2 273.333C2042.8 269.2 1999.47 237.2 1950.67 202C1902 166.8 1859.87 135.733 1857.2 132.933C1849.47 125.067 1847.47 119.733 1846.93 105.467C1846.27 89.6 1847.87 84.1333 1854.67 78.2667C1862.53 71.6 1875.07 67.8667 1892.67 67.0667C1918.13 65.8667 1936.27 70.2667 1947.6 80.5333L1954 86.4L1954.4 99.8667L1954.93 113.333H2078.4L2079.2 109.2C2080.53 102 2080.13 87.4667 2078 75.2C2072.4 43.0667 2053.33 22.1333 2019.33 10.8C1998.4 3.86668 1985.87 2.40001 1944.67 1.86668C1865.47 0.80001 1841.6 0.666677 1828.67 1.60001Z" fill="white"/>
<path d="M2133.33 480H2252L2252.27 424.933L2252.67 370L2348.13 369.6L2443.6 369.333L2445.2 372.933C2447.87 378.933 2495.2 449.067 2504.4 460.667C2509.07 466.533 2515.47 473.067 2518.67 475.333L2524.4 479.333L2666.93 480.133L2663.87 475.067C2653.87 458.267 2590 367.867 2518.13 268.667C2496.93 239.333 2465.07 195.2 2447.47 170.667C2413.47 123.067 2382.8 81.3334 2370.8 66C2345.33 33.4667 2325.07 17.2 2298 7.60001C2278.8 0.800014 2268.4 1.32173e-05 2197.73 1.32173e-05H2133.33V480ZM2286.27 163.333C2302.4 185.333 2329.33 222.4 2346.4 245.6L2377.33 288H2252V205.2C2252 124.4 2252 122.533 2254.53 122.933C2256.13 123.2 2268.27 138.533 2286.27 163.333Z" fill="white"/>
</svg>
