<svg width="660" height="800" viewBox="0 0 660 800" fill="none" xmlns="http://www.w3.org/2000/svg">
<g clip-path="url(#clip0_887_3867)">
<rect width="660" height="800" fill="#027BD0"/>
<mask id="mask0_887_3867" style="mask-type:alpha" maskUnits="userSpaceOnUse" x="0" y="0" width="660" height="800">
<rect width="660" height="800" fill="#00538D"/>
</mask>
<g mask="url(#mask0_887_3867)">
<path fill-rule="evenodd" clip-rule="evenodd" d="M706.046 1071.34C655.963 1078.34 626.822 1161.82 577.915 1148.96C529.692 1136.27 520.021 1067.37 507.492 1019.11C497.708 981.421 538.918 934.145 514.317 903.964C474.569 855.202 358.797 883.868 346.9 822.093C336.72 769.24 441.518 773.032 482.344 737.956C507.39 716.437 521.908 686.38 538.255 657.689C565.865 609.232 564.616 538.982 612.245 509.966C655.069 483.877 726.219 485.626 760.271 522.437C802.354 567.929 749.469 657.57 791.183 703.402C826.755 742.486 918.992 681.115 946.023 726.528C970.694 767.975 910.46 815.693 880.542 853.527C859.184 880.537 801.209 879.303 798.096 913.596C791.84 982.529 892.157 1050.14 857.271 1109.92C830.717 1155.42 758.222 1064.04 706.046 1071.34Z" fill="white"/>
</g>
</g>
<defs>
<clipPath id="clip0_887_3867">
<rect width="660" height="800" fill="white"/>
</clipPath>
</defs>
</svg>
